<svg t="1629547315482" class="icon" viewBox="0 0 1024 1024" version="1.1" xmlns="http://www.w3.org/2000/svg" p-id="4081" width="200" height="200"><path d="M42.93632 704.13312q-11.80672 0-19.32288-7.51616-11.80672-12.88192-4.29056-28.9792l74.05568-133.09952q-45.07648-42.93632-69.2224-98.21184Q0 381.05088 0 318.79168q0-85.87264 52.59264-159.92832 51.52768-72.99072 138.46528-114.85184Q281.22112 0 385.34144 0q104.12032 0 194.28352 44.01152 86.9376 41.86112 138.46528 113.77664 52.59264 74.06592 52.59264 161.00352h-50.45248q0-72.99072-45.07648-134.7072-45.08672-61.71648-121.2928-97.13664-77.28128-36.49536-168.51968-36.49536T216.82176 86.94784q-76.20608 35.42016-121.2928 97.13664-45.07648 61.71648-45.07648 134.7072 0 56.89344 23.61344 105.728t68.68992 84.26496q6.44096 5.36576 8.04864 15.02208 1.61792 9.65632-2.68288 17.17248l-50.44224 90.1632 153.48736-57.9584q9.66656-3.2256 17.17248-1.0752 48.30208 13.95712 62.2592 16.09728l-6.44096 49.37728q-18.24768-2.14016-63.32416-15.02208L51.51744 703.05792q-3.21536 1.0752-8.58112 1.0752z m939.20256 302.6944q-5.36576 0-9.65632-2.1504l-158.86336-62.24896q-74.06592 28.9792-152.96512 21.46304-78.88896-7.51616-146.50368-51.51744-63.3344-40.79616-98.75456-101.98016-35.42016-61.184-35.42016-128.79872 0-74.06592 44.00128-138.46528 44.01152-64.39936 116.992-101.96992 75.14112-38.64576 161.01376-38.64576 85.87264 0 161.01376 38.64576 72.99072 37.57056 115.9168 99.81952Q1024 606.45376 1024 680.51968q0 103.04512-78.35648 176.03584l59.0336 112.70144q3.2256 7.51616 2.1504 15.5648-1.0752 8.04864-5.36576 13.4144-10.73152 8.59136-19.32288 8.59136zM813.6192 888.75008q5.36576 0 9.65632 2.1504l105.19552 41.86112-37.57056-71.91552q-4.29056-7.51616-2.1504-16.10752 2.1504-8.58112 8.58112-13.94688 76.20608-61.184 76.20608-150.272 0-59.0336-37.56032-112.16896-37.57056-53.13536-98.75456-84.25472-64.39936-32.2048-135.23968-32.2048-70.85056 0-134.17472 32.2048-61.184 31.11936-98.75456 83.712-37.57056 52.60288-37.57056 112.71168 0 54.74304 28.98944 105.18528t80.49664 83.72224q60.1088 38.63552 129.34144 44.544 69.23264 5.89824 132.56704-22.00576 6.44096-3.2256 10.73152-3.2256z" p-id="4082"></path></svg>