<svg t="1629547360023" class="icon" viewBox="0 0 1024 1024" version="1.1" xmlns="http://www.w3.org/2000/svg" p-id="4646" width="200" height="200"><path d="M863.509333 818.261333l44.458667 44.437334a32 32 0 0 1-45.269333 45.269333l-44.437334-44.458667a181.333333 181.333333 0 1 1 45.248-45.248zM288 106.666667a181.333333 181.333333 0 0 1 181.333333 181.333333V405.333333a64 64 0 0 1-64 64h-117.333333a181.333333 181.333333 0 1 1 0-362.666666z m0 64a117.333333 117.333333 0 0 0 0 234.666666H405.333333v-117.333333A117.333333 117.333333 0 0 0 288 170.666667z m0 384H405.333333a64 64 0 0 1 64 64v117.333333a181.333333 181.333333 0 1 1-181.333333-181.333333z m0 64a117.333333 117.333333 0 1 0 117.333333 117.333333V618.666667h-117.333333z m448-512a181.333333 181.333333 0 1 1 0 362.666666H618.666667a64 64 0 0 1-64-64v-117.333333A181.333333 181.333333 0 0 1 736 106.666667z m0 64a117.333333 117.333333 0 0 0-117.333333 117.333333V405.333333h117.333333a117.333333 117.333333 0 0 0 0-234.666666z m-21.333333 426.666666a117.333333 117.333333 0 1 0 0 234.666667 117.333333 117.333333 0 0 0 0-234.666667z" fill="#000000" p-id="4647"></path></svg>