<?xml version="1.0" standalone="no"?><!DOCTYPE svg PUBLIC "-//W3C//DTD SVG 1.1//EN" "http://www.w3.org/Graphics/SVG/1.1/DTD/svg11.dtd"><svg class="icon" width="200px" height="200.00px" viewBox="0 0 1024 1024" version="1.1" xmlns="http://www.w3.org/2000/svg"><path d="M902 243.1v363.8c0 53.5-43.8 97.3-97.3 97.3H219.3c-53.5 0-97.3-43.9-97.3-97.3V243.1c0-53.5 43.8-97.3 97.3-97.3h585.4c53.5-0.1 97.3 43.7 97.3 97.3z" fill="#31BC69" /><path d="M776.3 653.5H247.8c-38.8 0-70.3-31.6-70.3-70.3V266.7c0-38.8 31.6-70.3 70.3-70.3h528.6c38.8 0 70.3 31.6 70.3 70.3v316.5c-0.2 38.8-31.8 70.3-70.4 70.3zM247.8 249.6c-9.3 0-17.2 7.9-17.2 17.2v316.5c0 9.3 7.9 17.2 17.2 17.2h528.5c9.5 0 17.2-7.7 17.2-17.2V266.7c0-9.3-7.9-17.2-17.2-17.2l-528.5 0.1z" fill="#FFFFFF" /><path d="M652.3 808H371.6c-16.3 0-29.6-13.3-29.6-29.6s13.3-29.6 29.6-29.6h280.6c16.3 0 29.6 13.3 29.6 29.6 0.1 16.2-13.2 29.6-29.5 29.6z" fill="#31BC69" /></svg>