<?xml version="1.0" standalone="no"?><!DOCTYPE svg PUBLIC "-//W3C//DTD SVG 1.1//EN" "http://www.w3.org/Graphics/SVG/1.1/DTD/svg11.dtd"><svg class="icon" width="200px" height="200.00px" viewBox="0 0 1024 1024" version="1.1" xmlns="http://www.w3.org/2000/svg"><path d="M670 327.7h-51.7v-71.9c0-58.5-47.6-106.1-106.1-106.1s-106.1 47.6-106.1 106.1v71.9h-51.7v-71.9c0-87 70.8-157.8 157.8-157.8S670 168.8 670 255.8v71.9z" fill="#DE4EE3" /><path d="M736.9 271.6H287.1c-22.4 0-41.2 16.6-44.1 38.7l-60.6 457.3c-3.5 26.7 17.2 50.4 44.1 50.4h571c26.9 0 47.6-23.7 44.1-50.4L781 310.3c-2.9-22.1-21.8-38.7-44.1-38.7z" fill="#DE4EE3" /><path d="M708.7 734.2H315.5c-17.1 0-31-14-31-31 0-17.1 14-31 31-31h393.3c17.1 0 31 14 31 31s-14 31-31.1 31z" fill="#FFFFFF" /></svg>