<svg t="1629547450575" class="icon" viewBox="0 0 1024 1024" version="1.1" xmlns="http://www.w3.org/2000/svg" p-id="6155" width="200" height="200"><path d="M512.0512 563.8912c143.0016 0 259.08736-118.55872 259.08736-264.87296 0-146.31936-116.08576-264.87808-259.09248-264.87808s-259.08736 119.1424-259.08736 264.87808c0 145.73568 116.08064 264.87296 259.08736 264.87296z m494.24384 324.77696l-18.54976-86.8864c-17.95072-83.29216-86.1696-155.264-170.53184-167.24992l-41.88672-5.9904a1885.87008 1885.87008 0 0 0-525.96224 0l-41.8816 5.9904c-84.37248 11.9808-153.18016 83.95776-170.53696 167.24992l-18.54976 86.8864c-5.38112 25.1648 0.59904 50.3296 16.75776 70.10816 16.1536 19.77344 39.49056 31.16032 65.21856 31.16032h824.54528c25.12896 0 49.06496-11.38688 65.21856-31.16032 15.55968-19.77344 21.53984-44.94336 16.15872-70.10816z" p-id="6156"></path></svg>