<?xml version="1.0" standalone="no"?><!DOCTYPE svg PUBLIC "-//W3C//DTD SVG 1.1//EN" "http://www.w3.org/Graphics/SVG/1.1/DTD/svg11.dtd"><svg class="icon" width="200px" height="200.00px" viewBox="0 0 1024 1024" version="1.1" xmlns="http://www.w3.org/2000/svg"><path fill="#333333" d="M512 183.4c40.5 0 79.8 7.9 116.7 23.5 35.7 15.1 67.8 36.7 95.4 64.3 27.6 27.6 49.2 59.7 64.3 95.4 15.6 36.9 23.5 76.2 23.5 116.7S804 563.1 788.4 600c-15.1 35.7-36.7 67.8-64.3 95.4-27.6 27.6-59.7 49.2-95.4 64.3-36.9 15.6-76.2 23.5-116.7 23.5s-79.8-7.9-116.7-23.5c-35.7-15.1-67.8-36.7-95.4-64.3s-49.2-59.7-64.3-95.4c-15.6-36.9-23.5-76.2-23.5-116.7s7.9-79.8 23.5-116.7c15.1-35.7 36.7-67.8 64.3-95.4s59.7-49.2 95.4-64.3c36.9-15.6 76.2-23.5 116.7-23.5m0-80c-209.9 0-380 170.1-380 380s170.1 380 380 380 380-170.1 380-380-170.1-380-380-380z"  /><path fill="#333333" d="M552 653.2c0 22-18 40-40 40s-40-18-40-40 18-40 40-40 40 18 40 40z m-40-372.4c-22 0-40 18-40 40v204c0 22 18 40 40 40s40-18 40-40v-204c0-22-18-40-40-40z"  /></svg>