<?xml version="1.0" standalone="no"?><!DOCTYPE svg PUBLIC "-//W3C//DTD SVG 1.1//EN" "http://www.w3.org/Graphics/SVG/1.1/DTD/svg11.dtd"><svg class="icon" width="200px" height="200.00px" viewBox="0 0 1024 1024" version="1.1" xmlns="http://www.w3.org/2000/svg"><path fill="#333333" d="M699.9 104.2H324.2c-47.6 0-86.6 38.9-86.6 86.6v14.7h548.8v-14.7c0-47.6-38.9-86.6-86.5-86.6z m-97.2 56.6c-2 2-4.7 3.2-7.7 3.2H429c-5.9 0-10.8-4.8-10.8-10.8 0-3 1.2-5.7 3.1-7.6 2-2 4.7-3.2 7.7-3.2h166c5.9 0 10.8 4.8 10.8 10.8 0 3-1.2 5.7-3.1 7.6zM706.5 312.9v484.7c0 3.5-3.1 6.6-6.6 6.6H324.1c-3.5 0-6.6-3.1-6.6-6.6V312.9h389m80-80h-549v564.7c0 47.6 38.9 86.6 86.6 86.6h375.8c47.6 0 86.6-38.9 86.6-86.6V232.9zM512 662.5c28.3 0 51.2 22.9 51.2 51.2s-22.9 51.2-51.2 51.2-51.2-22.9-51.2-51.2 22.9-51.2 51.2-51.2z"  /></svg>