<?xml version="1.0" standalone="no"?><!DOCTYPE svg PUBLIC "-//W3C//DTD SVG 1.1//EN" "http://www.w3.org/Graphics/SVG/1.1/DTD/svg11.dtd"><svg class="icon" width="200px" height="200.00px" viewBox="0 0 1024 1024" version="1.1" xmlns="http://www.w3.org/2000/svg"><path fill="#333333" d="M512 106.9c-204.3 0-370 165.7-370 370s165.7 370 370 370 370-165.7 370-370-165.7-370-370-370zM717.1 682c-26.7 26.7-57.7 47.6-92.2 62.2C589.2 759.3 551.2 767 512 767s-77.2-7.7-112.9-22.8c-34.5-14.6-65.5-35.5-92.2-62.2s-47.6-57.7-62.2-92.2c-15.1-35.7-22.8-73.7-22.8-112.9s7.7-77.2 22.8-112.9c14.6-34.5 35.5-65.5 62.2-92.2s57.7-47.6 92.2-62.2c35.7-15.1 73.7-22.8 112.9-22.8s77.2 7.7 112.9 22.8c34.5 14.6 65.5 35.5 92.2 62.2s47.6 57.7 62.2 92.2c15.1 35.7 22.8 73.7 22.8 112.9s-7.7 77.2-22.8 112.9c-14.7 34.5-35.6 65.5-62.2 92.2z"  /><path fill="#333333" d="M583.8 512.9c5.4-10.8 8.5-23 8.5-36 0-35.5-23.1-65.7-55.1-76.2V236.3c0-13.9-11.3-25.2-25.2-25.2s-25.2 11.3-25.2 25.2v164.4c-32 10.6-55.1 40.7-55.1 76.2 0 44.3 36 80.3 80.3 80.3 13 0 25.3-3.1 36.1-8.6l91.8 91.9c4.9 4.9 11.3 7.4 17.8 7.4s12.9-2.5 17.9-7.5c9.9-9.9 9.9-25.8 0-35.7l-91.8-91.8z"  /></svg>