<?xml version="1.0" standalone="no"?><!DOCTYPE svg PUBLIC "-//W3C//DTD SVG 1.1//EN" "http://www.w3.org/Graphics/SVG/1.1/DTD/svg11.dtd"><svg class="icon" width="200px" height="200.00px" viewBox="0 0 1024 1024" version="1.1" xmlns="http://www.w3.org/2000/svg"><path fill="#333333" d="M868.4 408.8h-67.9c-7.4-31.5-19.8-61.1-36.4-87.8l48-48c6.6-6.6 6.6-17.5 0-24.1L740 176.8c-6.6-6.6-17.5-6.6-24.1 0l-48 48c-26.8-16.6-56.4-29-87.9-36.4v-67.8c0-9.4-7.7-17.1-17.1-17.1H461c-9.4 0-17.1 7.7-17.1 17.1v67.9c-31.5 7.4-61.1 19.8-87.8 36.4l-48-48c-6.6-6.6-17.5-6.6-24.1 0L211.9 249c-6.6 6.6-6.6 17.5 0 24.1l48 48c-16.6 26.7-29 56.3-36.4 87.8h-67.9c-9.4 0-17.1 7.7-17.1 17.1v101.9c0 9.4 7.7 17.1 17.1 17.1h67.8c7.4 31.5 19.8 61.1 36.4 87.9l-47.9 47.9c-6.6 6.6-6.6 17.5 0 24.1L284 777c6.6 6.6 17.5 6.6 24.1 0l47.9-48c26.8 16.6 56.4 29.1 88 36.5v67.7c0 9.4 7.7 17.1 17.1 17.1H563c9.4 0 17.1-7.7 17.1-17.1v-67.8c31.5-7.4 61.1-19.8 87.9-36.5l47.9 47.9c6.6 6.6 17.5 6.6 24.1 0l72.1-72.1c6.6-6.6 6.6-17.5 0-24.1l-48-47.9c16.6-26.8 29-56.4 36.4-87.9h67.7c9.4 0 17.1-7.7 17.1-17.1V425.9c0.1-9.4-7.6-17.1-16.9-17.1zM717.5 544.9c-3.3 10-7.3 19.8-12.1 29.2a217.14 217.14 0 0 1-40.4 55.8c-16.6 16.6-35.4 30.1-55.7 40.4-9.4 4.8-19.2 8.8-29.2 12.1-21.7 7.2-44.6 10.9-68.1 10.9-23.5 0-46.3-3.7-68-10.8-10-3.3-19.8-7.4-29.3-12.1a217.14 217.14 0 0 1-55.8-40.4 219.26 219.26 0 0 1-40.5-55.8c-4.7-9.4-8.8-19.2-12.1-29.2-7.1-21.7-10.9-44.5-10.9-68s3.7-46.4 10.9-68.1c3.3-10 7.3-19.7 12.1-29.1 10.3-20.4 23.8-39.2 40.4-55.8 16.6-16.6 35.4-30.2 55.8-40.4 9.4-4.7 19.1-8.8 29.1-12.1 21.7-7.2 44.6-10.9 68.1-10.9s46.3 3.7 68 10.8c10 3.3 19.8 7.3 29.2 12.1 20.4 10.3 39.2 23.8 55.8 40.5 16.6 16.6 30.1 35.4 40.4 55.7 4.8 9.4 8.8 19.2 12.1 29.2 7.2 21.7 10.9 44.6 10.9 68.1 0.2 23.4-3.5 46.2-10.7 67.9z"  /><path fill="#333333" d="M512 346.9c-71.7 0-130 58.3-130 130s58.3 130 130 130 130-58.3 130-130-58.3-130-130-130z m0 180c-27.6 0-50-22.4-50-50s22.4-50 50-50 50 22.4 50 50-22.4 50-50 50z"  /></svg>