<?xml version="1.0" standalone="no"?><!DOCTYPE svg PUBLIC "-//W3C//DTD SVG 1.1//EN" "http://www.w3.org/Graphics/SVG/1.1/DTD/svg11.dtd"><svg class="icon" width="200px" height="200.00px" viewBox="0 0 1024 1024" version="1.1" xmlns="http://www.w3.org/2000/svg"><path fill="#333333" d="M407.6 760.8c19.8 37.8 59.4 63 104.4 63s84.6-25.2 104.4-63H407.6zM758.6 535.8l-3.6-3.6V400.8c0-99-59.4-183.6-144-221.4-3.6-52.2-46.8-93.6-99-93.6s-95.4 41.4-99 93.6c-84.6 37.8-144 122.4-144 221.4v131.4l-3.6 3.6c-45 39.6-68.4 91.8-68.4 153 0 14.4 12.6 27 27 27h576c14.4 0 27-12.6 27-27v-7.2c-1.8-59.4-25.2-108-68.4-145.8z m-470.8 100c6.8-14.9 16.9-28.1 30.4-39.9l1.9-1.7 1.8-1.8 3.6-3.6 23.4-23.4V400.8c0-32 9.3-62.9 26.9-89.4 17.2-25.9 41.3-46.3 69.7-59l43.9-19.6 3.3-47.9c0.7-10.5 9.3-19.1 19.2-19.1 9.9 0 18.5 8.6 19.2 19.1l3.3 47.9 43.9 19.6c28.4 12.7 52.5 33.1 69.7 59 17.6 26.5 26.9 57.4 26.9 89.4v164.5l23.4 23.4 3.6 3.6 1.9 1.9 2 1.8c13.7 12 23.8 25 30.5 39.8H287.8zM598 422.9L569.1 451c-3 3-4.5 7.2-3.7 11.4l6.8 39.7c1.8 10.6-9.2 18.5-18.7 13.6L517.8 497c-3.8-2-8.2-2-12 0l-35.7 19c-9.4 5-20.5-3-18.7-13.6l6.8-39.7c0.7-4.2-0.7-8.4-3.7-11.4l-28.8-28c-7.6-7.4-3.5-20.5 7.1-22l39.9-5.8c4.2-0.7 7.8-3.3 9.7-7l17.9-36.2c4.8-9.8 18.4-9.8 23.1-0.2l17.9 36.2c1.9 3.9 5.5 6.5 9.7 7l39.9 5.8c10.6 1.4 14.9 14.3 7.1 21.8z"  /></svg>