<?xml version="1.0" standalone="no"?><!DOCTYPE svg PUBLIC "-//W3C//DTD SVG 1.1//EN" "http://www.w3.org/Graphics/SVG/1.1/DTD/svg11.dtd"><svg class="icon" width="200px" height="200.00px" viewBox="0 0 1024 1024" version="1.1" xmlns="http://www.w3.org/2000/svg"><path fill="#333333" d="M624.5 285.8V684H207V285.8h417.5m29.4-80H177.6c-27.9 0-50.6 22.7-50.6 50.6v457c0 27.9 22.7 50.6 50.6 50.6h476.3c27.9 0 50.6-22.7 50.6-50.6v-457c0-27.9-22.7-50.6-50.6-50.6z"  /><path fill="#333333" d="M817 385v202.7l-32.6-17V401.2L817 385m12.6-87.8c-10.1 0-20.3 2.3-30 7.1l-95.1 47.3h-0.1v267.6l94 49c9.7 5 20.4 7.6 31.2 7.6 37.2 0 67.4-30.2 67.4-67.4V364.6c0-10.4-2.5-20.7-7.1-30-11.7-23.7-35.6-37.4-60.3-37.4z"  /><path fill="#333333" d="M319.3 387.9m-57.8 0a57.8 57.8 0 1 0 115.6 0 57.8 57.8 0 1 0-115.6 0Z"  /></svg>