<?xml version="1.0" standalone="no"?><!DOCTYPE svg PUBLIC "-//W3C//DTD SVG 1.1//EN" "http://www.w3.org/Graphics/SVG/1.1/DTD/svg11.dtd"><svg class="icon" width="200px" height="200.00px" viewBox="0 0 1024 1024" version="1.1" xmlns="http://www.w3.org/2000/svg"><path fill="#333333" d="M827.3 447.2H750v60.1h77.3c20.8 0 37.8 16.9 37.8 37.8v63.1c0 20.8-16.9 37.8-37.8 37.8H750v60h77.3c54 0 97.9-43.9 97.8-97.9V545c0-53.9-43.9-97.8-97.8-97.8z"  /><path fill="#333333" d="M713.2 459.3v174.9c0 34.1-13.4 66.3-37.8 90.7-24.4 24.4-56.6 37.8-90.7 37.8H387.3c-34.1 0-66.3-13.4-90.7-37.8-24.4-24.4-37.8-56.6-37.8-90.7V459.3h454.4m60-80H198.8c-11 0-20 9-20 20v234.9c0 114.7 93.8 208.5 208.5 208.5h197.4c114.7 0 208.5-93.9 208.5-208.5V399.3c0-11-9-20-20-20z m-287.7-66.1c-16.6 0-30-13.4-30-30V133.4c0-16.6 13.4-30 30-30s30 13.4 30 30v149.8c0 16.5-13.5 30-30 30z m-159.6 0c-16.6 0-30-13.4-30-30v-79.8c0-16.6 13.4-30 30-30s30 13.4 30 30v79.8c0 16.5-13.4 30-30 30z m319.1 0c-16.6 0-30-13.4-30-30v-79.8c0-16.6 13.4-30 30-30s30 13.4 30 30v79.8c0 16.5-13.5 30-30 30zM486 548.6c-21-21-55.2-20.9-76 0.5-20.5 21-19.7 54.8 1.1 75.6l53 53c12.2 12.2 31.8 12.2 43.9 0l53-53c20.8-20.8 21.5-54.5 1.1-75.6-20.9-21.3-55.1-21.5-76.1-0.5z"  /></svg>