<?xml version="1.0" standalone="no"?><!DOCTYPE svg PUBLIC "-//W3C//DTD SVG 1.1//EN" "http://www.w3.org/Graphics/SVG/1.1/DTD/svg11.dtd"><svg class="icon" width="200px" height="200.00px" viewBox="0 0 1024 1024" version="1.1" xmlns="http://www.w3.org/2000/svg"><path fill="#333333" d="M614.7 145.8H409.4c-46.4 0-84.1 37.7-84.1 84.1V317h59.2v-87.1c0-13.7 11.2-24.9 24.9-24.9h205.3c13.7 0 24.9 11.2 24.9 24.9V317h59.2v-87.1c0-46.4-37.7-84.1-84.1-84.1z"  /><path fill="#333333" d="M887 463.1l-0.1-114.7c0-38.9-31.6-70.5-70.5-70.5h-609c-38.9 0-70.5 31.6-70.5 70.5V748c0 31.9 25.9 57.8 57.8 57.8H829.4c31.8 0 57.5-25.9 57.5-57.6V512.4h0.1v-49.3z m-80.1-105.2v105.2h-185v-12.8c0-10.9-8.9-19.7-19.7-19.7H421.8c-10.9 0-19.7 8.9-19.7 19.7v12.8H216.9V357.9h590zM579.1 471.5v32.4c0 4.6-3.8 8.5-8.5 8.5H453.4c-4.6 0-8.5-3.8-8.5-8.5v-32.4c0-4.6 3.8-8.5 8.5-8.5h117.2c4.6 0 8.5 3.8 8.5 8.5z m227.8 254.3h-590V512.4h185.2v12.8c0 10.9 8.9 19.7 19.7 19.7h180.3c10.9 0 19.7-8.9 19.7-19.7v-12.8h185.1v213.4z"  /></svg>